<svg width="503" height="142" viewBox="0 0 503 142" fill="none" xmlns="http://www.w3.org/2000/svg">
<path d="M126.286 48.3721C126.286 36.1543 133.74 25.9702 143.259 20.5688C152.886 15.1067 165.655 13.9516 176.738 21.0655C185.134 26.4542 190.188 29.4247 194.669 30.67C198.451 31.7211 202.206 31.6256 208.145 29.1115C212.692 27.187 214.539 24.006 215.402 21.0527C215.856 19.5024 216.014 18.0428 216.053 16.97C216.073 16.4436 216.062 16.0381 216.051 15.798C216.045 15.6789 216.039 15.603 216.036 15.5762L216.039 15.603C216.04 15.6094 216.041 15.6168 216.042 15.6249C216.042 15.6289 216.043 15.6332 216.043 15.6376L216.044 15.6447C216.046 15.6481 213.813 2.79592 219.623 0.264C224.61 -1.90859 230.444 9.92949 231.212 13.7704C231.811 16.7654 231.838 21.7665 230.745 25.5036C228.885 31.8645 224.376 39.5349 214.396 43.7596C205.808 47.3946 198.304 48.2033 190.373 45.9991C183.141 43.989 176.029 39.5441 168.082 34.4433C162.822 31.0676 156.524 31.3593 151.17 34.3974C145.708 37.4963 142.266 42.866 142.266 48.3721C142.266 53.9588 145.412 58.1421 150.771 64.6818C155.427 70.3637 162.8 78.8882 161.466 90.8483C160.484 99.6494 153.134 104.08 146.96 106.078C140.486 108.173 132.493 108.684 124.59 108.174C116.58 107.657 108.066 106.051 100.322 103.466C92.6826 100.915 85.2096 97.2179 79.7866 92.1616L90.7075 80.5429C93.8194 83.4443 98.9214 86.2124 105.401 88.3756C111.775 90.5037 118.924 91.8599 125.623 92.2923C132.429 92.7316 138.191 92.1805 142.022 90.9408C143.921 90.3263 144.93 89.6748 145.38 89.2658C145.495 89.1609 145.557 89.0854 145.587 89.0446C146.048 84.7491 143.795 81.3378 138.392 74.7448C133.673 68.9863 126.286 60.5095 126.286 48.3721Z" fill="#46AFE3"></path>
<path d="M85.6752 96.9005C82.4086 103.887 81.4945 109.639 81.7846 113.672C82.0814 117.797 83.5104 119.377 84.0912 119.794C84.3843 120.004 85.5193 120.74 88.5377 119.461C91.7715 118.091 96.4999 114.552 101.9 107.101L116.822 117.84C110.258 126.898 103.113 133.219 95.7401 136.343C88.1519 139.558 79.9451 139.423 73.3353 134.681C67.0135 130.145 63.9788 122.69 63.4242 114.984C62.863 107.185 64.71 98.3082 68.9902 89.1533L85.6752 96.9005Z" fill="#46AFE3"></path>
<path d="M63.1195 100.224C52.9453 112.817 55.6432 118.598 56.4241 119.54C57.5905 120.946 63.3097 123.967 75.0489 118.512L82.6625 134.896C68.1767 141.627 51.6229 142.05 42.5185 131.072C33.0286 119.63 37.4579 103.24 49.0675 88.8704L63.1195 100.224Z" fill="#46AFE3"></path>
<path d="M44.3626 98.2217C35.8275 101.993 30.8563 105.966 28.4227 109.069C27.2322 110.587 26.8115 111.686 26.6803 112.283C26.5659 112.803 26.6519 112.975 26.6697 113.017C26.7181 113.13 27.6684 114.942 32.7059 116.15C37.5617 117.314 45.0032 117.537 55.1159 115.599L58.5149 133.342C46.7687 135.592 36.5961 135.66 28.495 133.718C20.5783 131.82 13.2268 127.577 10.042 120.078C6.71058 112.234 9.30206 104.176 14.2075 97.9212C19.089 91.6968 26.9124 86.1812 37.0623 81.6968L44.3626 98.2217Z" fill="#46AFE3"></path>
<path d="M50.8128 17.1809C37.0623 22.2289 1.60034 37.3725 1.60034 37.3725C1.60034 37.3725 24.0354 94.321 47.1942 97.9472C70.353 101.573 119.565 91.8175 119.565 91.8175C119.565 91.8175 114.138 38.0937 97.4923 27.2768C80.8469 16.4599 64.5633 12.1329 50.8128 17.1809Z" fill="#46AFE3"></path>
<path d="M51.0681 14.5634C65.5888 9.19395 82.477 13.8942 99.292 24.9007C103.912 27.9249 107.543 33.7638 110.419 40.4322C113.326 47.1693 115.591 55.0618 117.319 62.5483C119.05 70.0451 120.256 77.191 121.028 82.4586C121.415 85.0939 121.693 87.2633 121.875 88.7755C121.966 89.5315 122.034 90.1235 122.078 90.5279C122.1 90.7301 122.117 90.8857 122.128 90.9911C122.133 91.0437 122.138 91.0842 122.14 91.1115C122.142 91.1251 122.142 91.1355 122.143 91.1427C122.144 91.1463 122.144 91.1492 122.145 91.1512C122.145 91.1521 122.144 91.1528 122.145 91.1533C122.145 91.154 122.145 91.1544 120.347 91.3361C120.7 93.1145 120.699 93.1146 120.698 93.1147L120.697 93.1154C120.695 93.1157 120.692 93.1162 120.689 93.1168C120.683 93.1181 120.674 93.1201 120.662 93.1225C120.637 93.1273 120.601 93.1343 120.553 93.1437C120.458 93.1625 120.317 93.1901 120.132 93.2259C119.764 93.2975 119.221 93.402 118.523 93.5333C117.127 93.7958 115.109 94.1663 112.616 94.5993C107.63 95.4653 100.739 96.5822 93.1203 97.5849C77.9626 99.5798 59.6526 101.162 47.7991 99.2927C41.3953 98.2827 35.3067 93.6351 29.8755 87.6655C24.3985 81.6455 19.3544 74.0179 15.0775 66.5758C10.7942 59.1224 7.24498 51.7932 4.76808 46.3325C3.52882 43.6004 2.55594 41.3314 1.89219 39.7437C1.56036 38.9499 1.30583 38.326 1.13352 37.8992C1.04735 37.6857 0.981631 37.5213 0.937322 37.4097C0.915215 37.3541 0.898641 37.3112 0.887215 37.2822C0.881531 37.2678 0.876805 37.2566 0.873806 37.249C0.872369 37.2453 0.87108 37.2425 0.870277 37.2405C0.869864 37.2394 0.869778 37.2381 0.869571 37.2376C0.873991 37.2351 0.960035 37.2006 2.55064 36.5739L0.868865 37.2369L0.22876 35.6L1.83926 34.9072L1.84067 34.9065C1.84177 34.906 1.84348 34.9053 1.84561 34.9044C1.84993 34.9025 1.85621 34.8995 1.86466 34.8959C1.88182 34.8885 1.90779 34.8778 1.94159 34.8633C2.00916 34.8343 2.1094 34.7908 2.24082 34.7344C2.50391 34.6214 2.8918 34.4555 3.38977 34.2421C4.38569 33.8153 5.82355 33.1999 7.59174 32.4458C11.128 30.9376 15.9865 28.8738 21.2746 26.651C31.8365 22.2114 44.1592 17.1182 51.0681 14.5634ZM97.3188 27.9387C80.8908 17.1855 65.2583 13.1809 52.3173 17.9662C45.4954 20.4888 33.247 25.5507 22.6706 29.9964C17.3897 32.2162 12.537 34.277 9.00463 35.7834C7.28804 36.5155 5.88336 37.1164 4.89299 37.5408C4.99287 37.7829 5.10321 38.0506 5.22469 38.3412C5.87641 39.9001 6.8346 42.1349 8.05682 44.8295C10.5031 50.2227 14.0001 57.4415 18.2082 64.7639C22.4228 72.0977 27.3155 79.4745 32.5432 85.2204C37.8165 91.0165 43.2006 94.8962 48.3595 95.71C59.6317 97.4878 77.4556 95.9884 92.6503 93.9887C100.207 92.9942 107.048 91.8858 111.999 91.0258C114.474 90.5959 116.476 90.2281 117.858 89.9683C118.037 89.9346 118.206 89.9012 118.364 89.8712C118.34 89.6684 118.317 89.4479 118.288 89.2111C118.109 87.7256 117.834 85.5876 117.453 82.987C116.69 77.7827 115.501 70.7393 113.799 63.3671C112.095 55.9846 109.888 48.3281 107.104 41.8736C104.29 35.3504 101.009 30.3545 97.3188 27.9387ZM122.309 92.7931L120.7 93.1147L120.347 91.3361L122.145 91.1547L122.309 92.7931Z" fill="#46AFE3"></path>
<path d="M107.563 60.2398C109.399 67.5286 108.617 74.0092 105.816 74.7145C103.015 75.4199 99.2567 70.0829 97.4211 62.7941C95.5855 55.5052 96.3679 49.0247 99.1686 48.3194C101.969 47.614 105.728 52.951 107.563 60.2398Z" fill="#005F79"></path>
<path d="M220.409 81.6998C217.728 93.7696 210.225 103.522 200.376 109.38C198.12 110.722 195.741 111.859 193.268 112.774C185.77 115.546 177.413 116.266 169.029 114.403C166.25 113.786 163.595 112.914 161.081 111.816C152.637 108.127 145.796 101.895 141.287 94.2654C139.993 92.0758 138.891 89.7711 137.998 87.3783C135.504 80.6945 134.644 73.3237 135.793 65.856C135.938 64.9127 136.115 63.9679 136.325 63.0227C136.724 61.2273 137.229 59.4832 137.833 57.7956C140.429 50.5425 144.846 44.3324 150.436 39.5773C152.421 37.8886 154.554 36.3834 156.806 35.0802C165.819 29.8642 176.738 27.883 187.706 30.3191C200.899 33.2497 211.323 41.9425 216.919 53.1628C218.139 55.6083 219.13 58.1739 219.869 60.8261C221.708 67.4204 221.997 74.5499 220.409 81.6998Z" fill="#FF9169"></path>
<mask id="mask0_568_101" style="mask-type:alpha" maskUnits="userSpaceOnUse" x="135" y="29" width="87" height="87">
<path d="M220.409 81.6998C217.728 93.7696 210.225 103.522 200.376 109.38C198.12 110.722 195.741 111.859 193.268 112.774C185.77 115.546 177.413 116.266 169.029 114.403C166.25 113.786 163.595 112.914 161.081 111.816C152.637 108.127 145.796 101.895 141.287 94.2654C139.993 92.0758 138.891 89.7711 137.998 87.3783C135.504 80.6945 134.644 73.3237 135.793 65.856C135.938 64.9127 136.115 63.9679 136.325 63.0227C136.724 61.2273 137.229 59.4832 137.833 57.7956C140.429 50.5425 144.846 44.3324 150.436 39.5773C152.421 37.8886 154.554 36.3834 156.806 35.0802C165.819 29.8642 176.738 27.883 187.706 30.3191C200.899 33.2497 211.323 41.9425 216.919 53.1628C218.139 55.6083 219.13 58.1739 219.869 60.8261C221.708 67.4204 221.997 74.5499 220.409 81.6998Z" fill="#FF9169"></path>
</mask>
<g mask="url(#mask0_568_101)">
<path fill-rule="evenodd" clip-rule="evenodd" d="M155.27 44.4022C153.876 42.1004 152.063 39.9598 149.797 38.0974C151.867 36.3972 154.086 34.8883 156.424 33.589C158.588 35.6302 160.42 37.9133 161.913 40.3799C166.785 48.428 167.881 58.138 165.588 67.1307C163.289 76.1425 157.563 84.5409 148.661 89.9842C145.865 91.6937 142.781 93.0966 139.424 94.1365C138.133 91.8634 137.042 89.4753 136.167 87.0005C139.325 86.117 142.139 84.8697 144.61 83.3589C151.704 79.0213 156.24 72.356 158.063 65.2115C159.89 58.0478 158.966 50.5076 155.27 44.4022Z" fill="#005F79"></path>
<path fill-rule="evenodd" clip-rule="evenodd" d="M219.601 51.8962C220.6 54.3143 221.386 56.8645 221.941 59.5139C217.475 59.3043 213.415 60.3906 209.905 62.3324C203.911 65.6493 199.239 71.6191 196.805 78.6682C194.377 85.6991 194.201 93.7425 197.17 101.142C198.334 104.042 199.997 106.883 202.239 109.542C200.142 111.004 197.942 112.265 195.667 113.305C193.665 110.629 192.078 107.774 190.884 104.799C187.177 95.5594 187.374 85.4159 190.452 76.5036C193.523 67.6094 199.489 59.8797 207.346 55.5319C211.105 53.4515 215.234 52.1803 219.601 51.8962Z" fill="#005F79"></path>
<path fill-rule="evenodd" clip-rule="evenodd" d="M218.054 90.3082L220.54 82.1354L136.523 56.5962C135.872 58.3197 135.322 60.1032 134.88 61.9411C134.647 62.9087 134.449 63.8766 134.283 64.8435L218.054 90.3082Z" fill="#005F79"></path>
<path fill-rule="evenodd" clip-rule="evenodd" d="M167.53 115.313C164.703 114.631 162.005 113.691 159.455 112.524L186.979 29.5043L195.087 32.1932L167.53 115.313Z" fill="#005F79"></path>
</g>
<path d="M222.619 104.696C217.022 99.1843 209.648 99.4264 208.178 99.8193C206.708 100.212 200.853 102.672 197.215 107.199C190.463 115.603 182.058 133.845 159.002 137.383C136.573 140.824 114.192 135.468 101.98 122.882C90.0596 110.596 87.9019 91.1723 83.7537 79.3431L98.0806 75.2898C101.895 86.1678 103.179 98.3085 112.819 108.244C122.167 117.878 139.465 125.398 155.867 122.882C171.64 120.461 175.519 109.696 185.068 97.8115C189.581 92.195 195.632 86.5353 205.393 85.269C214.776 84.0518 238.4 92.8375 237.801 109.01C237.202 125.183 228.217 110.208 222.619 104.696Z" fill="#46AFE3"></path>
<path d="M488.316 122.024C484.433 122.024 481.319 120.765 478.972 118.248C476.668 115.688 475.516 112.061 475.516 107.368H484.284C484.284 109.587 484.668 111.208 485.436 112.232C486.204 113.213 487.185 113.704 488.38 113.704C489.489 113.704 490.343 113.384 490.94 112.744C491.537 112.061 491.836 111.165 491.836 110.056C491.836 108.776 491.516 107.667 490.876 106.728C490.236 105.789 489.404 104.915 488.38 104.104C487.399 103.293 486.332 102.461 485.18 101.608C483.729 100.499 482.257 99.3253 480.764 98.088C479.313 96.8507 478.097 95.3787 477.116 93.672C476.135 91.9227 475.644 89.8107 475.644 87.336C475.644 84.8613 476.156 82.728 477.18 80.936C478.247 79.1013 479.676 77.6933 481.468 76.712C483.303 75.688 485.372 75.176 487.676 75.176C490.193 75.176 492.391 75.752 494.268 76.904C496.188 78.056 497.66 79.6987 498.684 81.832C499.751 83.9227 500.284 86.376 500.284 89.192H491.516C491.516 87.3147 491.175 85.928 490.492 85.032C489.852 84.0933 488.956 83.624 487.804 83.624C486.823 83.624 486.033 83.944 485.436 84.584C484.839 85.224 484.54 86.056 484.54 87.08C484.54 88.6587 485.159 90.0027 486.396 91.112C487.676 92.2213 489.276 93.48 491.196 94.888C492.775 96.04 494.289 97.2347 495.74 98.472C497.191 99.7093 498.385 101.181 499.324 102.888C500.263 104.595 500.732 106.728 500.732 109.288C500.732 113.085 499.601 116.157 497.34 118.504C495.121 120.851 492.113 122.024 488.316 122.024Z" fill="#005F79"></path>
<path d="M460.183 122.024C457.709 122.024 455.511 121.384 453.591 120.104C451.714 118.781 450.242 116.968 449.175 114.664C448.109 112.36 447.575 109.715 447.575 106.728V90.408C447.575 87.4213 448.109 84.7973 449.175 82.536C450.242 80.232 451.714 78.44 453.591 77.16C455.511 75.8373 457.709 75.176 460.183 75.176C462.658 75.176 464.834 75.8373 466.711 77.16C468.631 78.44 470.125 80.232 471.191 82.536C472.258 84.7973 472.791 87.4213 472.791 90.408V94.568H463.319V89.64C463.319 85.9707 462.274 84.136 460.183 84.136C458.093 84.136 457.047 85.9707 457.047 89.64V107.56C457.047 111.229 458.093 113.064 460.183 113.064C462.274 113.064 463.319 111.229 463.319 107.56V102.632H472.791V106.728C472.791 109.715 472.258 112.36 471.191 114.664C470.125 116.968 468.631 118.781 466.711 120.104C464.834 121.384 462.658 122.024 460.183 122.024Z" fill="#005F79"></path>
<path d="M419.738 121V112.168H427.738V85.032H419.738V76.2H444.954V85.032H437.018V112.168H444.954V121H419.738Z" fill="#005F79"></path>
<path d="M400.644 121V85.032H392.644V76.2H417.86V85.032H409.86V121H400.644Z" fill="#005F79"></path>
<path d="M365.554 121V76.2H390.77V85.032H374.898V93.928H386.866V102.824H374.898V112.168H390.77V121H365.554Z" fill="#005F79"></path>
<path d="M337.102 121V76.2H346.446V112.168H362.318V121H337.102Z" fill="#005F79"></path>
<path d="M306.399 121V76.2H315.679V93.096H322.271V76.2H331.615V121H322.271V101.928H315.679V121H306.399Z" fill="#005F79"></path>
<path d="M285.833 121V85.032H277.833V76.2H303.049V85.032H295.049V121H285.833Z" fill="#005F79"></path>
<path d="M254.256 121L260.976 76.2H272.688L279.472 121H270.192L269.552 114.856H264.304L263.6 121H254.256ZM266.032 99.368L265.264 105.96H268.592L267.888 99.368L267.568 90.216H266.416L266.032 99.368Z" fill="#005F79"></path>
<path d="M474.802 65V20.2H484.082L491.25 43.816V20.2H500.018V65H490.738L483.57 41.384V65H474.802Z" fill="#005F79"></path>
<path d="M457.622 66.024C455.148 66.024 452.95 65.384 451.03 64.104C449.153 62.7813 447.66 60.968 446.55 58.664C445.484 56.36 444.95 53.7147 444.95 50.728V34.408C444.95 31.4213 445.484 28.7973 446.55 26.536C447.66 24.232 449.153 22.44 451.03 21.16C452.95 19.8373 455.148 19.176 457.622 19.176C460.097 19.176 462.273 19.8373 464.15 21.16C466.07 22.44 467.564 24.232 468.63 26.536C469.74 28.7973 470.294 31.4213 470.294 34.408V50.728C470.294 53.7147 469.74 56.36 468.63 58.664C467.564 60.968 466.07 62.7813 464.15 64.104C462.273 65.384 460.097 66.024 457.622 66.024ZM457.622 57.064C459.756 57.064 460.822 55.2293 460.822 51.56V33.64C460.822 29.9707 459.756 28.136 457.622 28.136C455.489 28.136 454.422 29.9707 454.422 33.64V51.56C454.422 55.2293 455.489 57.064 457.622 57.064Z" fill="#005F79"></path>
<path d="M417.113 65V56.168H425.113V29.032H417.113V20.2H442.329V29.032H434.393V56.168H442.329V65H417.113Z" fill="#005F79"></path>
<path d="M398.019 65V29.032H390.019V20.2H415.235V29.032H407.235V65H398.019Z" fill="#005F79"></path>
<path d="M366.441 65L373.161 20.2H384.873L391.657 65H382.377L381.737 58.856H376.489L375.785 65H366.441ZM378.217 43.368L377.449 49.96H380.777L380.073 43.368L379.753 34.216H378.601L378.217 43.368Z" fill="#005F79"></path>
<path d="M347.959 65L341.175 20.2H350.455L353.719 46.888L357.047 20.2H366.391L359.671 65H347.959Z" fill="#005F79"></path>
<path d="M314.149 65V20.2H339.365V29.032H323.493V37.928H335.461V46.824H323.493V56.168H339.365V65H314.149Z" fill="#005F79"></path>
<path d="M285.697 65V20.2H295.041V56.168H310.913V65H285.697Z" fill="#005F79"></path>
<path d="M256.432 65V20.2H281.648V29.032H265.776V37.928H277.744V46.824H265.776V56.168H281.648V65H256.432Z" fill="#005F79"></path>
</svg>